<?xml version="1.0" standalone="no"?>
<!DOCTYPE svg PUBLIC "-//W3C//DTD SVG 1.1//EN" "http://www.w3.org/Graphics/SVG/1.1/DTD/svg11.dtd">
<svg width="100%" height="100%" viewBox="0 0 540 200" version="1.1" xmlns="http://www.w3.org/2000/svg" xmlns:xlink="http://www.w3.org/1999/xlink" xml:space="preserve" style="fill-rule:evenodd;clip-rule:evenodd;stroke-linejoin:round;stroke-miterlimit:1.41421;">
    <g transform="matrix(1.0503,0,0,1.0503,-240.716,-409.57)">
        <text x="469.694px" y="558.33px" style="font-family:Myriad Pro;font-size:118.667px;font-weight:700;fill:rgb(3,167,209);">.c<tspan x="552.761px " y="558.33px ">o</tspan>m</text>
    </g>
    <g transform="matrix(1.0503,0,0,1.0503,-167.854,-420.202)">
        <text x="488.159px" y="495.994px" style="font-family:Myriad Pro;font-size:100px;fill:rgb(242,242,242);">ube</text>
    </g>
    <g transform="matrix(4.37623,0,0,4.37623,-125.525,-371.405)">
        <path d="M103.401,105.664C101.429,107.004 98.736,106.49 97.395,104.518C96.054,102.546 96.569,99.852 98.541,98.509C100.512,97.169 103.206,97.684 104.547,99.656C105.889,101.627 105.375,104.322 103.401,105.664M106.077,98.616C104.162,95.794 100.32,95.064 97.501,96.981C94.68,98.898 93.948,102.739 95.866,105.558C97.562,108.056 100.765,108.912 103.433,107.749L105.822,111.629L107.718,110.341L105.33,106.461C107.394,104.408 107.776,101.111 106.077,98.616" style="fill:rgb(242,242,242);"/>
    </g>
    <g transform="matrix(1.0503,0,0,1.0503,-208.401,-448.657)">
        <text x="218.175px" y="523.185px" style="font-family:Myriad Pro;font-size:100px;font-weight:700;fill:rgb(242,242,242);">sonar</text>
    </g>
</svg>
